<?xml version="1.0" encoding="utf-8"?>
<!-- Generator: Adobe Illustrator 24.2.1, SVG Export Plug-In . SVG Version: 6.00 Build 0)  -->
<svg version="1.1" id="Layer_1" xmlns="http://www.w3.org/2000/svg" xmlns:xlink="http://www.w3.org/1999/xlink" x="0px" y="0px"
	 viewBox="0 0 240 40" style="enable-background:new 0 0 240 40;" xml:space="preserve">
<style type="text/css">
	.st0{fill:#183055;}
	.st1{fill:#6772FF;}
</style>
<g>
	<path class="st0" d="M154.8,12.2c-7.7,0-13.9,6.2-13.9,13.9c0,7.7,6.2,13.9,13.9,13.9c7.7,0,13.9-6.2,13.9-13.9
		C168.7,18.4,162.5,12.2,154.8,12.2z M154.8,32.4c-3,0-5.5-2.8-5.5-6.3c0-3.5,2.5-6.3,5.5-6.3s5.5,2.8,5.5,6.3
		C160.3,29.6,157.9,32.4,154.8,32.4z M205.5,2.7c-2.4,0-4.4,1.8-4.4,4.1c0,2.3,2,4.1,4.4,4.1c2.4,0,4.4-1.8,4.4-4.1
		C209.9,4.6,207.9,2.7,205.5,2.7z M201.2,39.6h8.5v-27h-8.5V39.6z M184.1,12.2c-1.8,0-3.5,0.3-5.1,1v-0.5h-8.8V20h0v6.1c0,0,0,0,0,0
		c0,0,0,0,0,0l0,13.5h8.8V24.9c0-2.8,2.3-5.1,5.1-5.1c2.8,0,5.1,2.3,5.1,5.1v14.7h8.8V26.1C198,18.4,191.7,12.2,184.1,12.2z
		 M226.5,32.4c-3,0-5.5-2.8-5.5-6.3s2.5-6.3,5.5-6.3c2,0,3.7,1.2,4.7,3h8.8c-1.5-6.1-7-10.6-13.5-10.6c-7.7,0-13.9,6.2-13.9,13.9
		S218.8,40,226.5,40c6.1,0,11.2-3.9,13.1-9.3h-9.3C229.3,31.8,228,32.4,226.5,32.4z M87,13.2c-1.6-0.6-3.3-1-5.1-1
		c-7.7,0-13.9,6.2-13.9,13.9S74.2,40,81.9,40c1.8,0,3.5-0.3,5.1-1v0.5h8.8V12.6H87V13.2z M81.9,32.4c-3,0-5.5-2.8-5.5-6.3
		s2.5-6.3,5.5-6.3c3,0,5.5,2.8,5.5,6.3S84.9,32.4,81.9,32.4z M115.6,23.3l-5.6-1c-2.1-0.4-2.7-1.1-2.7-1.9c0-1.1,1.4-1.8,3.1-1.8
		c2,0,3.6,1,3.7,2.7h9.1c-0.3-5.7-5.1-9.1-13.1-9.1c-7.9,0-12.8,3.2-12.7,8.8c0,4.2,2.8,7,8.4,7.9l4.9,0.8c2.2,0.4,3.1,0.9,3.2,2
		c0,1.1-1.4,1.8-3.2,1.8c-2.2,0-3.8-0.9-4.1-2.7h-9.9c0.5,5.5,5.4,9.2,13.9,9.2c7.6,0,13.3-3.6,13.3-9.4
		C124,26.6,121.2,24.3,115.6,23.3z M66.1,29.8c-1.7,1.8-4.5,1.9-6.4,0.2c-1-0.9-1.4-2.1-1.4-3.3V14.1H68V6.8h-9.8V0h-8.8v6.8h-4.3
		l4.3,7.3v12.6c0,3.7,1.6,7.3,4.3,9.8c4.7,4.4,11.9,4.7,16.9,1L66.1,29.8L66.1,29.8z M138.2,31.2c-2.5,0-4.5-2-4.5-4.5V0h-8.8v6.8h0
		v19.9h0c0,7.3,6,13.3,13.3,13.3c2.2,0,4.3-0.6,6.2-1.5l-4.5-7.6C139.4,31.1,138.8,31.2,138.2,31.2z"/>
	<path class="st1" d="M31.9,22.6c-0.5-0.8-1.2-1.3-2.1-1.6c-0.9-0.2-1.8-0.1-2.5,0.4L8.2,32.7c-0.5,0.3-1.1,0.1-1.3-0.3
		c-0.2-0.3-0.1-0.6-0.1-0.7c0-0.2,0.2-0.4,0.4-0.6l28.3-16.7c1.8-1,3-2.7,3.5-4.7c0.5-2,0.2-4.1-0.8-5.8C36.1,0.2,31.4-1,27.7,1.1
		l-16.1,9.7L9.2,6.8h5.1l11.4-6.7H3.4v0c-0.6,0-1.2,0.1-1.7,0.4c-1.6,0.9-2.1,3-1.2,4.6l7.1,12.1C8,18,8.7,18.5,9.6,18.7
		c0.9,0.2,1.8,0.1,2.6-0.4l19-11.5c0.5-0.3,1.1-0.1,1.3,0.3c0.2,0.3,0.1,0.6,0.1,0.7c0,0.2-0.2,0.4-0.4,0.6L3.8,25.2
		c-1.8,1-3,2.7-3.5,4.7c-0.5,2-0.2,4.1,0.8,5.8c2.1,3.6,6.9,4.9,10.5,2.7l16.2-9.5l2.3,3.9H25l-11.4,6.7H36c0,0,0,0,0,0
		c0.6,0,1.2-0.1,1.7-0.5c1.6-0.9,2.1-3,1.2-4.6L31.9,22.6z"/>
</g>
</svg>
