<?xml version="1.0" encoding="utf-8"?>
<!-- Generator: Adobe Illustrator 24.2.1, SVG Export Plug-In . SVG Version: 6.00 Build 0)  -->
<svg version="1.1" id="Layer_1" xmlns="http://www.w3.org/2000/svg" xmlns:xlink="http://www.w3.org/1999/xlink" x="0px" y="0px"
	 viewBox="0 0 220 40" style="enable-background:new 0 0 220 40;" xml:space="preserve">
<style type="text/css">
	.st0{fill:#6772FF;}
	.st1{fill:#183055;}
</style>
<g>
	<path class="st0" d="M31.2,40c-1.9,0-3.4-1.5-3.4-3.4v-2.8c0-1.2,0.6-2.3,1.7-2.9l3.2-1.9c0.3-0.2,0.4-0.4,0.5-0.6s0.1-0.5-0.1-0.7
		c-0.3-0.5-0.9-0.6-1.4-0.3L11.8,38.9c-3.7,2.2-8.5,0.9-10.7-2.8c-1.1-1.8-1.4-3.9-0.8-5.9c0.5-2,1.8-3.7,3.6-4.8L32.7,8.6
		C33,8.5,33.1,8.2,33.1,8c0-0.2,0.1-0.5-0.1-0.7c-0.3-0.5-0.9-0.6-1.4-0.3L11.8,18.6c-3.7,2.2-8.5,0.9-10.7-2.8
		C0,14-0.3,11.9,0.3,9.9c0.5-2,1.8-3.7,3.6-4.8l1.5-0.9V3.4C5.4,1.5,6.9,0,8.8,0s3.4,1.5,3.4,3.4v2.8c0,1.2-0.6,2.3-1.7,2.9L7.3,11
		c-0.3,0.2-0.4,0.4-0.5,0.6c0,0.2-0.1,0.5,0.1,0.7c0.3,0.5,0.9,0.6,1.4,0.3L28.2,1.1c3.7-2.2,8.5-0.9,10.7,2.8
		c1.1,1.8,1.4,3.9,0.8,5.9c-0.5,2-1.8,3.7-3.6,4.8L7.3,31.4C7,31.5,6.9,31.8,6.9,32c0,0.2-0.1,0.5,0.1,0.7c0.3,0.5,0.9,0.6,1.4,0.3
		l19.9-11.6c3.7-2.2,8.5-0.9,10.7,2.8c1.1,1.8,1.4,3.9,0.8,5.9c-0.5,2-1.8,3.7-3.6,4.8l-1.5,0.9v0.9C34.6,38.5,33.1,40,31.2,40z"/>
	<path class="st1" d="M65.7,28.4c-1.4,1.6-3.9,1.7-5.4,0.2c-0.8-0.8-1.2-1.8-1.2-2.8V15h8.4V8.7h-8.4V2.9h-7.6v5.8h-3.7l3.7,6.3
		v10.8c0,3.2,1.3,6.2,3.7,8.4c4.1,3.8,10.1,4,14.5,0.9L65.7,28.4L65.7,28.4z M147.1,13.3c-6.6,0-11.9,5.3-11.9,11.9
		c0,6.6,5.3,11.9,11.9,11.9S159,31.8,159,25.2C159,18.7,153.6,13.3,147.1,13.3z M147.1,30.7c-2.6,0-4.7-2.4-4.7-5.4s2.1-5.4,4.7-5.4
		c2.6,0,4.7,2.4,4.7,5.4S149.7,30.7,147.1,30.7z M190.4,5.2c-2.1,0-3.8,1.6-3.8,3.5c0,1.9,1.7,3.5,3.8,3.5c2.1,0,3.8-1.6,3.8-3.5
		C194.2,6.8,192.5,5.2,190.4,5.2z M186.8,36.8h7.3V13.7h-7.3V36.8z M172.1,13.3c-1.5,0-3,0.3-4.3,0.8v-0.5h-7.6v23.1h7.6V24.2
		c0-2.4,1.9-4.3,4.3-4.3c2.4,0,4.3,1.9,4.3,4.3v12.6h7.6V25.2C184,18.7,178.7,13.3,172.1,13.3z M208.4,30.7c-2.6,0-4.7-2.4-4.7-5.4
		c0-3,2.1-5.4,4.7-5.4c1.7,0,3.2,1,4,2.6h7.6c-1.3-5.2-6-9.1-11.6-9.1c-6.6,0-11.9,5.3-11.9,11.9s5.3,11.9,11.9,11.9
		c5.2,0,9.6-3.3,11.2-8h-8C210.8,30.1,209.7,30.7,208.4,30.7z M131.8,29.6c-2.1,0-3.9-1.7-3.9-3.9V2.9h-7.6v22.9h0
		c0,6.3,5.1,11.4,11.4,11.4c1.9,0,3.7-0.5,5.3-1.3l-3.8-6.5C132.8,29.5,132.3,29.6,131.8,29.6z M111.1,22.8l-4.8-0.8
		c-1.8-0.3-2.3-0.9-2.3-1.6c0-1,1.2-1.5,2.7-1.5c1.7,0,3.1,0.9,3.2,2.3h7.8c-0.2-4.9-4.4-7.8-11.2-7.8c-6.8,0-10.9,2.7-10.9,7.5
		c0,3.6,2.4,6,7.2,6.8l4.2,0.7c1.8,0.3,2.7,0.8,2.7,1.7c0,1-1.2,1.5-2.7,1.5c-1.9,0-3.3-0.8-3.5-2.3H95c0.5,4.7,4.7,7.9,11.9,7.9
		c6.6,0,11.4-3.1,11.4-8.1C118.2,25.7,115.9,23.7,111.1,22.8z M84.6,14.2c-1.3-0.5-2.8-0.8-4.3-0.8c-6.6,0-11.9,5.3-11.9,11.9
		c0,6.6,5.3,11.9,11.9,11.9c1.5,0,3-0.3,4.3-0.8v0.5h7.6V13.7h-7.6V14.2z M80.3,30.7c-2.6,0-4.7-2.4-4.7-5.4c0-3,2.1-5.4,4.7-5.4
		c2.6,0,4.7,2.4,4.7,5.4C85,28.2,82.9,30.7,80.3,30.7z"/>
</g>
</svg>
