<?xml version="1.0" encoding="utf-8"?>
<!-- Generator: Adobe Illustrator 23.0.6, SVG Export Plug-In . SVG Version: 6.00 Build 0)  -->
<svg version="1.1" id="Layer_1" xmlns="http://www.w3.org/2000/svg" xmlns:xlink="http://www.w3.org/1999/xlink" x="0px" y="0px"
	 viewBox="0 0 300 100" style="enable-background:new 0 0 300 100;" xml:space="preserve">
<style type="text/css">
	.st0{fill:#4AB390;}
	.st1{fill:#19986B;}
	.st2{fill:#5BD2AA;}
	.st3{fill:#363B41;}
</style>
<g>
	<polygon class="st0" points="30.18,37.5 30.18,12.5 42.68,25 	"/>
	<polygon class="st1" points="30.18,12.5 30.18,37.5 17.68,25 	"/>
	<polygon class="st1" points="67.68,50 67.68,75 55.18,62.5 	"/>
	<polygon class="st0" points="17.68,50 17.68,25 30.18,37.5 	"/>
	<polygon class="st1" points="67.68,25 42.68,0 30.18,12.5 42.68,25 17.68,50 30.18,62.5 55.18,37.5 67.68,50 	"/>
	<polygon class="st0" points="55.18,87.5 55.18,62.5 67.68,75 	"/>
	<polygon class="st1" points="55.18,62.5 55.18,87.5 42.68,75 	"/>
	<polygon class="st0" points="42.68,75 67.68,50 55.18,37.5 30.18,62.5 17.68,50 5.18,62.5 42.68,100 55.18,87.5 	"/>
	<path class="st2" d="M85.36,50c0-4.88-1.98-9.3-5.18-12.5L67.68,25v50l12.5-12.5C83.38,59.3,85.36,54.88,85.36,50z"/>
	<path class="st2" d="M17.68,25L5.18,37.5c-6.9,6.9-6.9,18.1,0,25L17.68,50V25z"/>
	<path class="st3" d="M167.21,51.95l-5.26-1.11c-3.1-0.71-3.5-1.81-3.49-2.81c0-0.6,0.22-1.12,0.66-1.56
		c0.75-0.76,2.03-1.19,3.53-1.19c2.89,0,4.28,1.73,4.61,3.36l0.04,0.22l7.89-0.51l-0.04-0.28c-0.76-5.93-5.37-9.33-12.65-9.33
		c-4.29,0-7.86,1.22-10.08,3.43c-1.65,1.65-2.52,3.83-2.51,6.31c-0.03,4.75,2.88,7.77,8.61,8.97l5.04,1.05
		c2.38,0.51,3.49,1.4,3.53,2.78c-0.03,1.7-1.83,2.84-4.47,2.84c-2.82,0-4.57-1.23-5.03-3.56l-0.04-0.22l-8.44,0.47l0.04,0.28
		c0.78,6.05,5.81,9.66,13.46,9.66c7.77,0,13.19-4.24,13.21-10.3C175.81,55.98,172.98,53.2,167.21,51.95z M109.08,58.31V45.76h5.73
		v-6.26h-5.73V29.23l-8.47,2.87v7.41h-4.17v6.26h4.17v12.54c0,6.41,5.21,11.61,11.61,11.61h2.59v-8.47h-2.59
		C110.49,61.45,109.08,60.04,109.08,58.31z M137.83,40.79c-2.17-1.14-4.65-1.79-7.28-1.79c-8.69,0-15.75,7.05-15.75,15.75
		c0,8.69,7.05,15.75,15.75,15.75c4.06,0,7.75-1.54,10.55-4.06c1.41,1.47,3.2,2.56,5.21,3.13V39.51h-8.47V40.79z M130.59,63.95
		c-4.26,0-6.45-3.92-6.45-9.23c0-5.32,2.19-9.26,6.45-9.26c4.19,0,6.38,3.93,6.38,9.26C136.98,60.04,134.79,63.95,130.59,63.95z
		 M187.1,58.31V29.23l-8.47,2.87v26.19c0,6.41,5.21,11.61,11.61,11.61v-8.46C188.52,61.45,187.1,60.04,187.1,58.31z M258.12,69.91
		h8.46V39.58h-8.46V69.91z M290.68,58.71v0.01c-0.86,3.16-2.84,5.22-5.88,5.22c-4.26,0-6.45-3.92-6.45-9.23
		c0-5.32,2.19-9.26,6.45-9.26c3.03,0,5.01,2.06,5.88,5.22h9.29c-1.8-6.73-7.92-11.68-15.21-11.68c-8.69,0-15.75,7.05-15.75,15.75
		c0,8.69,7.05,15.75,15.75,15.75c7.32,0,13.48-5,15.24-11.78H290.68z M206,39.01c-8.69,0-15.75,7.05-15.75,15.75
		c0,8.69,7.05,15.75,15.75,15.75c8.69,0,15.75-7.05,15.75-15.75C221.74,46.05,214.69,39.01,206,39.01z M206.04,63.95
		c-4.26,0-6.45-3.92-6.45-9.23c0-5.32,2.19-9.26,6.45-9.26c4.19,0,6.38,3.93,6.38,9.26C212.41,60.04,210.22,63.95,206.04,63.95z
		 M262.35,29.23c-2.57,0-4.65,2.08-4.65,4.65c0,2.57,2.08,4.65,4.65,4.65c2.57,0,4.65-2.08,4.65-4.65
		C267,31.32,264.91,29.23,262.35,29.23z M239.93,38.91c-4.06,0-7.75,1.54-10.55,4.06c-1.41-1.47-3.2-2.56-5.21-3.13v30.07h9.34
		V54.69c0-5.32,2.19-9.23,6.38-9.23c4.26,0,6.45,3.92,6.45,9.23v15.21h9.33V54.65C255.69,45.96,248.64,38.91,239.93,38.91z"/>
</g>
</svg>
