<?xml version="1.0" encoding="utf-8"?>
<!-- Generator: Adobe Illustrator 24.0.1, SVG Export Plug-In . SVG Version: 6.00 Build 0)  -->
<svg version="1.1" id="Layer_1" xmlns="http://www.w3.org/2000/svg" xmlns:xlink="http://www.w3.org/1999/xlink" x="0px" y="0px"
	 viewBox="0 0 230 40" style="enable-background:new 0 0 230 40;" xml:space="preserve">
<style type="text/css">
	.st0{fill:#D700FF;}
	.st1{fill:#363B41;}
	.st2{fill:#FFFFFF;}
</style>
<rect x="0" y="9.89" class="st0" width="21.05" height="21.05"/>
<path class="st1" d="M101.57,21.88l-5.07-1.07c-2.99-0.68-3.37-1.75-3.36-2.71c0-0.57,0.21-1.08,0.64-1.51
	c0.72-0.73,1.96-1.15,3.4-1.15c2.79,0,4.12,1.67,4.44,3.24l0.04,0.21l7.6-0.49l-0.04-0.27c-0.73-5.71-5.17-8.99-12.19-8.99
	c-4.13,0-7.57,1.17-9.71,3.31c-1.59,1.59-2.43,3.69-2.41,6.08c-0.03,4.57,2.77,7.48,8.29,8.64l4.85,1.01
	c2.29,0.49,3.36,1.35,3.4,2.68c-0.03,1.64-1.76,2.73-4.31,2.73c-2.72,0-4.4-1.19-4.84-3.43l-0.04-0.21l-8.13,0.45l0.04,0.27
	c0.75,5.83,5.6,9.31,12.96,9.31c7.48,0,12.71-4.08,12.72-9.92C109.85,25.76,107.13,23.08,101.57,21.88z"/>
<path class="st1" d="M73.28,11.13c-2.09-1.09-4.48-1.72-7.01-1.72c-8.37,0-15.17,6.79-15.17,15.17c0,2.27,0.51,4.42,1.41,6.35h-5.26
	c-1.66,0-3.02-1.36-3.02-3.02V15.88h5.5V9.87h-5.5V0l-8.14,2.75v7.11h-4v6.01h4v12.05c0,6.16,5,11.16,11.16,11.16h0h1.26l4.01-8.11
	c2.41,5.19,7.65,8.8,13.75,8.8c3.91,0,7.47-1.48,10.16-3.91c1.36,1.41,3.08,2.47,5.01,3.01V9.89h-8.16V11.13z M66.3,33.44
	c-4.11,0-6.21-3.77-6.21-8.89c0-5.12,2.11-8.92,6.21-8.92c4.04,0,6.15,3.79,6.15,8.92C72.45,29.67,70.34,33.44,66.3,33.44z"/>
<ellipse transform="matrix(0.9925 -0.1222 0.1222 0.9925 0.9042 23.7053)" class="st1" cx="193.74" cy="4.48" rx="4.48" ry="4.48"/>
<rect x="189.67" y="9.96" class="st1" width="8.15" height="29.21"/>
<path class="st1" d="M139.47,9.41c-8.37,0-15.17,6.79-15.17,15.17c0,2.27,0.51,4.42,1.41,6.35h-1.95c-1.66,0-3.02-1.36-3.02-3.02V0
	l-8.14,2.75v25.17c0,6.16,5,11.16,11.16,11.16h0h1.26l2.53-5.12c2.78,3.53,7.08,5.81,11.92,5.81c8.37,0,15.17-6.79,15.17-15.17
	C154.63,16.2,147.84,9.41,139.47,9.41z M139.51,33.44c-4.11,0-6.21-3.77-6.21-8.89c0-5.12,2.11-8.92,6.21-8.92
	c4.04,0,6.15,3.79,6.15,8.92C145.64,29.67,143.53,33.44,139.51,33.44z"/>
<path class="st1" d="M221.03,28.39v0.01c-0.83,3.04-2.73,5.03-5.67,5.03c-4.11,0-6.21-3.77-6.21-8.89c0-5.12,2.11-8.92,6.21-8.92
	c2.92,0,4.83,1.99,5.67,5.03h8.95c-1.73-6.48-7.63-11.25-14.65-11.25c-8.37,0-15.17,6.79-15.17,15.17c0,8.37,6.79,15.17,15.17,15.17
	c7.05,0,12.99-4.81,14.68-11.35H221.03z"/>
<path class="st1" d="M172.15,9.32c-3.91,0-7.47,1.48-10.16,3.91c-1.36-1.41-3.08-2.47-5.01-3.01v28.96h9V24.52
	c0-5.12,2.11-8.89,6.15-8.89c4.11,0,6.21,3.77,6.21,8.89v14.65h8.99V24.48C187.32,16.11,180.53,9.32,172.15,9.32z"/>
<path class="st2" d="M12.66,26.23h0.42l1.35-2.74h-1.78c-0.56,0-1.02-0.46-1.02-1.02v-4.05h1.85V16.4h-1.85v-3.32L8.9,14v2.39H7.55
	v2.02H8.9v4.05C8.9,24.55,10.58,26.23,12.66,26.23L12.66,26.23z"/>
</svg>
