<?xml version="1.0" encoding="utf-8"?>
<!-- Generator: Adobe Illustrator 23.0.3, SVG Export Plug-In . SVG Version: 6.00 Build 0)  -->
<svg version="1.1" id="Layer_1" xmlns="http://www.w3.org/2000/svg" xmlns:xlink="http://www.w3.org/1999/xlink" x="0px" y="0px"
	 viewBox="0 0 566.93 113.39" style="enable-background:new 0 0 566.93 113.39;" xml:space="preserve">
<style type="text/css">
	.st0{fill:#CC8551;}
	.st1{fill:#BF7138;}
	.st2{fill:#B36127;}
	.st3{fill:#353A40;}
</style>
<g>
	<polyline class="st0" points="113.88,112.86 113.88,96.93 105.91,104.89 	"/>
	<polygon class="st0" points="97.18,113.62 110.71,113.62 103.94,106.86 	"/>
	<polygon class="st1" points="93.25,113.62 113.88,92.99 113.88,83.56 83.82,113.62 	"/>
	<polygon class="st0" points="79.88,113.62 113.88,79.63 113.88,70.2 70.45,113.62 	"/>
	<polygon class="st1" points="61.88,91.53 50.48,80.13 25.72,104.89 34.45,113.62 43.88,113.62 35.15,104.89 50.48,89.56 
		52.45,91.53 39.08,104.89 47.81,113.62 57.24,113.62 48.51,104.89 	"/>
	<polygon class="st1" points="16.99,113.62 30.51,113.62 23.75,106.86 	"/>
	<polygon class="st1" points="0.46,83.57 0.46,99.5 8.43,91.54 	"/>
	<polygon class="st0" points="0.46,3.38 0.46,19.31 8.43,11.34 	"/>
	<polygon class="st0" points="19.54,0.24 1.26,0.24 10.4,9.38 	"/>
	<polygon class="st1" points="99.73,0.24 81.45,0.24 90.59,9.38 	"/>
	<polygon class="st1" points="113.88,32.66 113.88,16.73 105.91,24.7 	"/>
	<polygon class="st1" points="16.1,17.04 32.9,0.24 23.47,0.24 11.38,12.33 11.38,12.33 0.46,23.24 0.46,32.67 16.1,17.04 	"/>
	<polygon class="st0" points="36.84,0.24 0.46,36.61 0.46,46.04 46.27,0.24 	"/>
	<polygon class="st1" points="52.46,24.71 63.86,36.11 88.62,11.34 77.51,0.24 68.08,0.24 79.19,11.34 63.86,26.68 61.89,24.71 
		75.26,11.34 64.15,0.24 54.72,0.24 65.83,11.34 	"/>
	<polygon class="st0" points="23.76,40.04 12.37,51.44 25.73,64.81 10.4,80.14 0.46,70.21 0.46,79.64 10.4,89.57 35.16,64.81 
		21.8,51.44 23.76,49.47 39.1,64.81 0.46,103.44 0.46,112.87 48.53,64.81 	"/>
	<polyline class="st2" points="63.85,106.86 61.88,104.89 75.24,91.53 50.48,66.76 3.62,113.62 13.05,113.62 50.48,76.19 
		65.81,91.53 52.45,104.89 61.18,113.62 66.51,113.62 88.61,91.53 23.76,26.68 0.46,49.98 0.46,52.91 12.36,64.81 10.4,66.77 
		0.46,56.84 0.46,66.27 10.4,76.21 21.79,64.81 8.43,51.44 23.76,36.11 79.18,91.53 63.85,106.86 	"/>
	<path class="st2" d="M92.55,51.43l13.37,13.37L90.58,80.13L35.16,24.71L50.49,9.38l1.97,1.97L39.1,24.71l24.76,24.76L113.1,0.24
		h-9.43L63.86,40.04L48.53,24.71l13.37-13.37L50.78,0.24H50.2L25.73,24.71l64.85,64.85l23.3-23.3v-2.93l-11.9-11.9l1.97-1.97
		l9.93,9.93v-9.43l-9.93-9.93L92.55,51.43z"/>
	<polygon class="st0" points="65.81,51.43 90.58,76.19 101.98,64.79 88.61,51.43 103.94,36.1 113.88,46.03 113.88,36.6 
		103.94,26.66 79.18,51.43 92.55,64.79 90.58,66.76 75.24,51.43 113.88,12.8 113.88,3.37 	"/>
</g>
<g>
	<path class="st3" d="M279.05,62.06l-11.43-2.41c-6.73-1.53-7.61-3.93-7.58-6.09c-0.01-1.28,0.47-2.43,1.43-3.4
		c1.63-1.64,4.42-2.58,7.67-2.58c6.29,0,9.3,3.77,10.01,7.31l0.1,0.49l17.14-1.11l-0.08-0.6c-1.65-12.87-11.66-20.25-27.46-20.25
		c-9.33,0-17.1,2.65-21.9,7.46c-3.58,3.59-5.46,8.33-5.44,13.72c-0.04,10.32,6.25,16.88,18.71,19.49l10.94,2.29
		c5.14,1.09,7.58,3.01,7.65,6.03c-0.08,3.69-3.98,6.17-9.71,6.17c-6.14,0-9.91-2.67-10.92-7.74l-0.1-0.48l-18.33,1.01l0.08,0.61
		c1.7,13.14,12.63,20.98,29.23,20.98c16.86,0,28.66-9.21,28.7-22.39C297.72,70.8,291.6,64.75,279.05,62.06z"/>
	<path class="st3" d="M322.25,75.88V12.76h-18.39v63.11c0,13.9,11.31,25.22,25.22,25.22V82.7C325.31,82.7,322.25,79.64,322.25,75.88
		z"/>
	<path class="st3" d="M152.8,75.88V48.64h12.45V35.06H152.8v-22.3l-18.39,6.21v16.09h-9.05v13.58h9.05v27.23
		c0,13.9,11.31,25.22,25.22,25.22h5.63V82.7h-5.63C155.86,82.7,152.8,79.64,152.8,75.88z"/>
	<path class="st3" d="M363.27,33.98c-18.89,0-34.2,15.31-34.2,34.2s15.31,34.2,34.2,34.2c18.89,0,34.2-15.31,34.2-34.2
		S382.16,33.98,363.27,33.98z M363.36,88.15c-9.27,0-14.02-8.5-14.02-20.05c0-11.56,4.74-20.1,14.02-20.1
		c9.1,0,13.84,8.54,13.84,20.1C377.2,79.65,372.46,88.15,363.36,88.15z"/>
	<path class="st3" d="M547.16,76.81c-1.87,6.87-6.18,11.34-12.78,11.34c-9.27,0-14.02-8.5-14.02-20.05c0-11.56,4.74-20.1,14.02-20.1
		c6.59,0,10.89,4.48,12.77,11.34h20.18c-3.9-14.6-17.21-25.36-33.04-25.36c-18.89,0-34.2,15.31-34.2,34.2s15.31,34.2,34.2,34.2
		c15.91,0,29.28-10.86,33.1-25.57H547.16z"/>
	<path class="st3" d="M215.28,37.87c-4.73-2.48-10.11-3.88-15.83-3.88c-18.89,0-34.2,15.31-34.2,34.2s15.31,34.2,34.2,34.2
		c8.81,0,16.84-3.33,22.9-8.81c3.06,3.18,6.95,5.55,11.31,6.78V35.06h-18.39V37.87z M199.54,88.15c-9.27,0-14.02-8.5-14.02-20.05
		c0-11.56,4.74-20.1,14.02-20.1c9.1,0,13.84,8.54,13.84,20.1C213.38,79.65,208.64,88.15,199.54,88.15z"/>
	<path class="st3" d="M436.97,33.77c-8.81,0-16.84,3.33-22.9,8.81c-3.06-3.18-6.95-5.55-11.31-6.78v65.29h20.29V68.05
		c0-11.56,4.74-20.05,13.84-20.05c9.27,0,14.02,8.5,14.02,20.05v33.03h20.27V67.96C471.17,49.08,455.85,33.77,436.97,33.77z"/>
	<rect x="476.44" y="35.22" class="st3" width="18.37" height="65.87"/>
	
		<ellipse transform="matrix(0.3827 -0.9239 0.9239 0.3827 278.6605 462.7812)" class="st3" cx="485.63" cy="22.87" rx="10.1" ry="10.1"/>
</g>
</svg>
